<?xml version="1.0" encoding="UTF-8"?>
<svg width="118px" height="25px" viewBox="0 0 118 25" version="1.1" xmlns="http://www.w3.org/2000/svg" xmlns:xlink="http://www.w3.org/1999/xlink">
    <!-- Generator: Sketch 43.1 (39012) - http://www.bohemiancoding.com/sketch -->
    <title>Logo</title>
    <desc>Created with Sketch.</desc>
    <defs></defs>
    <g id="Home" stroke="none" stroke-width="1" fill="none" fill-rule="evenodd">
        <g id="Event-Snapshot---Super-MVP" transform="translate(-151.000000, -112.000000)">
            <g id="App-Header" transform="translate(151.000000, 112.000000)">
                <g id="Logo/Green-+-White">
                    <g id="Logo">
                        <g id="Emsi" transform="translate(51.000000, 0.000000)" fill="#FFFFFF">
                            <polyline id="Fill-1" points="5.42417815 14.4931616 14.0665134 14.4931616 14.0665134 10.3612766 5.42417815 10.3612766 5.42417815 5.19645407 14.8352215 5.19645407 14.6086633 1.06456912 0.0861483133 1.06456912 0.0861483133 24.0480362 14.6795455 24.0480362 14.9478381 19.6579841 5.42417815 19.6579841 5.42417815 14.4931616"></polyline>
                            <path d="M37.4985963,7.14643672 C35.1189399,7.14643672 33.5360796,8.14007046 32.3950741,10.1270687 C31.5801269,7.9082854 29.8270167,7.14643672 27.6103233,7.14643672 C25.5567253,7.14643672 23.9531965,8.3892192 23.1383818,9.746952 L23.122483,7.14643672 L17.8793161,7.44458068 L17.8793161,24.0480362 L22.9630973,24.0480362 L22.9630973,15.3928429 C22.9630973,13.1408129 23.7806943,11.4849361 25.6061441,11.4849361 C27.3012237,11.4849361 27.7927623,12.8759157 27.7927623,14.8960261 L27.7927623,24.0480362 L32.8765434,24.0480362 L32.8765434,15.3928429 C32.8765434,13.1408129 33.7103042,11.4849361 35.5358866,11.4849361 C37.3287439,11.4849361 37.7060759,13.1408129 37.7060759,14.8960261 L37.7060759,24.0480362 L43.0441058,24.0480362 L43.0441058,13.9356391 C43.0441058,9.99462012 41.6059247,7.14643672 37.4985963,7.14643672" id="Fill-2"></path>
                            <path d="M50.6707712,11.9176823 C50.6707712,11.1606793 51.1685368,10.8230969 52.4204367,10.8230969 C54.5250434,10.8230969 56.6092466,12.4675325 56.6092466,12.4675325 L57.3954434,8.51722593 C56.4024294,7.67636574 54.3167688,6.99837426 52.0570161,6.99837426 C48.4014792,6.99837426 45.8481282,9.18714128 45.8481282,12.320816 C45.8481282,14.2086124 46.6479715,15.50214 47.8226295,16.2996582 C50.1794975,17.8998097 53.8021769,17.8743698 53.8021769,19.2420632 C53.8021769,20.1265345 53.1334989,20.5382828 51.6986301,20.5382828 C50.3667062,20.5382828 48.1433883,19.5402072 46.8918859,18.4438719 L45.4689413,22.1648162 C47.4960412,23.8461328 49.9618162,24.4976077 51.7635503,24.4976077 C57.8127875,24.4976077 58.6897401,20.553089 58.6897401,18.9062306 C58.6897401,17.1363458 57.9691259,15.8801031 56.8841637,15.073028 C54.5143117,13.3101425 50.6707712,13.3937305 50.6707712,11.9176823" id="Fill-3"></path>
                            <polygon id="Fill-4" points="61.0915223 24.0480362 66.1753034 24.0480362 66.1753034 7.52063095 61.0915223 7.52063095"></polygon>
                            <path d="M63.7205251,5.51115411 L63.7263547,5.51115411 C65.1589712,5.51115411 66.3312444,4.25504601 66.3312444,2.79959199 C66.3312444,1.34400337 65.1589712,0.0880298649 63.7263547,0.0880298649 L63.7205251,0.0880298649 C62.2877762,0.0880298649 61.1156355,1.34400337 61.1156355,2.79959199 C61.1156355,4.25504601 62.2877762,5.51115411 63.7205251,5.51115411" id="Fill-5"></path>
                        </g>
                        <g id="Mark" fill="#41D492">
                            <path d="M31.0089618,17.0636605 L31.0089618,17.0636605 C29.3846949,17.0636605 28.0558097,15.7185804 28.0558097,14.0746832 L28.0558097,7.3496861 C28.0558097,5.70578895 29.3846949,4.36070876 31.0089618,4.36070876 C32.6333617,4.36070876 33.9622469,5.70578895 33.9622469,7.3496861 L33.9622469,14.0746832 C33.9622469,15.7185804 32.6333617,17.0636605 31.0089618,17.0636605" id="Line-4"></path>
                            <path d="M24.6103103,21.5087649 C24.6103103,23.1593922 23.2880749,24.4976077 21.6571582,24.4976077 L21.6570252,24.4976077 C20.0261086,24.4976077 18.7038731,23.1593922 18.7038731,21.5087649 L18.7038731,3.0770072 C18.7038731,1.42624533 20.0261086,0.0880298649 21.6570252,0.0880298649 L21.6571582,0.0880298649 C23.2880749,0.0880298649 24.6103103,1.42624533 24.6103103,3.0770072 L24.6103103,21.5087649" id="Line-3"></path>
                            <path d="M15.2583738,21.5087649 C15.2583738,23.1593922 13.9361383,24.4976077 12.3052217,24.4976077 C10.674172,24.4976077 9.35193655,23.1593922 9.35193655,21.5087649 L9.35193655,12.2928188 C9.35193655,10.6420569 10.674172,9.30397602 12.3052217,9.30397602 C13.9361383,9.30397602 15.2583738,10.6420569 15.2583738,12.2928188 L15.2583738,21.5087649" id="Line-2"></path>
                            <path d="M5.90643724,21.5087649 C5.90643724,23.1593922 4.58433478,24.4976077 2.95328512,24.4976077 C1.32223546,24.4976077 0,23.1593922 0,21.5087649 C0,19.858003 1.32223546,18.5197876 2.95328512,18.5197876 C4.58433478,18.5197876 5.90643724,19.858003 5.90643724,21.5087649" id="Line-1"></path>
                        </g>
                    </g>
                </g>
            </g>
        </g>
    </g>
</svg>